<mxfile host="app.diagrams.net" agent="Mozilla/5.0 (Windows NT 10.0; Win64; x64) AppleWebKit/537.36 (KHTML, like Gecko) Chrome/135.0.0.0 Safari/537.36" version="26.2.14">
  <diagram id="C5RBs43oDa-KdzZeNtuy" name="Page-1">
    <mxGraphModel dx="1320" dy="1754" grid="1" gridSize="10" guides="1" tooltips="1" connect="1" arrows="1" fold="1" page="1" pageScale="1" pageWidth="827" pageHeight="1169" math="0" shadow="0">
      <root>
        <mxCell id="WIyWlLk6GJQsqaUBKTNV-0" />
        <mxCell id="WIyWlLk6GJQsqaUBKTNV-1" parent="WIyWlLk6GJQsqaUBKTNV-0" />
        <mxCell id="WIyWlLk6GJQsqaUBKTNV-6" value="Se hace un Reclamo" style="rhombus;whiteSpace=wrap;html=1;shadow=0;fontFamily=Helvetica;fontSize=12;align=center;strokeWidth=1;spacing=6;spacingTop=-4;" parent="WIyWlLk6GJQsqaUBKTNV-1" vertex="1">
          <mxGeometry x="110" y="160" width="100" height="80" as="geometry" />
        </mxCell>
        <mxCell id="WIyWlLk6GJQsqaUBKTNV-7" value="Reclamo" style="rounded=1;whiteSpace=wrap;html=1;fontSize=12;glass=0;strokeWidth=1;shadow=0;" parent="WIyWlLk6GJQsqaUBKTNV-1" vertex="1">
          <mxGeometry x="294" y="180" width="120" height="40" as="geometry" />
        </mxCell>
        <mxCell id="WIyWlLk6GJQsqaUBKTNV-10" value="es atendido por&amp;nbsp;" style="rhombus;whiteSpace=wrap;html=1;shadow=0;fontFamily=Helvetica;fontSize=12;align=center;strokeWidth=1;spacing=6;spacingTop=-4;" parent="WIyWlLk6GJQsqaUBKTNV-1" vertex="1">
          <mxGeometry x="304" y="290" width="100" height="80" as="geometry" />
        </mxCell>
        <mxCell id="WIyWlLk6GJQsqaUBKTNV-11" value="Administrador" style="rounded=1;whiteSpace=wrap;html=1;fontSize=12;glass=0;strokeWidth=1;shadow=0;" parent="WIyWlLk6GJQsqaUBKTNV-1" vertex="1">
          <mxGeometry x="160" y="450" width="120" height="40" as="geometry" />
        </mxCell>
        <mxCell id="XZPd20D5QZR4fNdpiBW7-0" value="" style="endArrow=classic;html=1;rounded=0;exitX=1;exitY=0.5;exitDx=0;exitDy=0;" edge="1" parent="WIyWlLk6GJQsqaUBKTNV-1" source="WIyWlLk6GJQsqaUBKTNV-6">
          <mxGeometry width="50" height="50" relative="1" as="geometry">
            <mxPoint x="330" y="250" as="sourcePoint" />
            <mxPoint x="290" y="200" as="targetPoint" />
          </mxGeometry>
        </mxCell>
        <mxCell id="XZPd20D5QZR4fNdpiBW7-1" value="" style="endArrow=classic;html=1;rounded=0;entryX=0.5;entryY=0;entryDx=0;entryDy=0;" edge="1" parent="WIyWlLk6GJQsqaUBKTNV-1" source="WIyWlLk6GJQsqaUBKTNV-7" target="WIyWlLk6GJQsqaUBKTNV-10">
          <mxGeometry width="50" height="50" relative="1" as="geometry">
            <mxPoint x="320" y="340" as="sourcePoint" />
            <mxPoint x="370" y="290" as="targetPoint" />
          </mxGeometry>
        </mxCell>
        <mxCell id="XZPd20D5QZR4fNdpiBW7-2" value="" style="endArrow=classic;html=1;rounded=0;exitX=0;exitY=1;exitDx=0;exitDy=0;entryX=0.5;entryY=0;entryDx=0;entryDy=0;" edge="1" parent="WIyWlLk6GJQsqaUBKTNV-1" source="WIyWlLk6GJQsqaUBKTNV-10" target="WIyWlLk6GJQsqaUBKTNV-11">
          <mxGeometry width="50" height="50" relative="1" as="geometry">
            <mxPoint x="330" y="450" as="sourcePoint" />
            <mxPoint x="380" y="400" as="targetPoint" />
          </mxGeometry>
        </mxCell>
        <mxCell id="XZPd20D5QZR4fNdpiBW7-3" value="Revisa la información" style="rhombus;whiteSpace=wrap;html=1;" vertex="1" parent="WIyWlLk6GJQsqaUBKTNV-1">
          <mxGeometry x="540" y="490" width="80" height="80" as="geometry" />
        </mxCell>
        <mxCell id="XZPd20D5QZR4fNdpiBW7-4" value="" style="endArrow=classic;html=1;rounded=0;entryX=1;entryY=0.5;entryDx=0;entryDy=0;exitX=1;exitY=0.5;exitDx=0;exitDy=0;" edge="1" parent="WIyWlLk6GJQsqaUBKTNV-1" source="WIyWlLk6GJQsqaUBKTNV-11" target="XZPd20D5QZR4fNdpiBW7-88">
          <mxGeometry width="50" height="50" relative="1" as="geometry">
            <mxPoint x="430" y="580" as="sourcePoint" />
            <mxPoint x="480" y="530" as="targetPoint" />
          </mxGeometry>
        </mxCell>
        <mxCell id="XZPd20D5QZR4fNdpiBW7-5" value="" style="triangle;whiteSpace=wrap;html=1;rotation=-179;" vertex="1" parent="WIyWlLk6GJQsqaUBKTNV-1">
          <mxGeometry x="720" y="490" width="60" height="80" as="geometry" />
        </mxCell>
        <mxCell id="XZPd20D5QZR4fNdpiBW7-6" value="¿La información está correcta? completa?" style="text;html=1;align=center;verticalAlign=middle;resizable=0;points=[];autosize=1;strokeColor=none;fillColor=none;" vertex="1" parent="WIyWlLk6GJQsqaUBKTNV-1">
          <mxGeometry x="530" y="610" width="250" height="30" as="geometry" />
        </mxCell>
        <mxCell id="XZPd20D5QZR4fNdpiBW7-7" value="" style="endArrow=classic;html=1;rounded=0;entryX=1;entryY=0.5;entryDx=0;entryDy=0;exitX=1;exitY=0.5;exitDx=0;exitDy=0;" edge="1" parent="WIyWlLk6GJQsqaUBKTNV-1" source="XZPd20D5QZR4fNdpiBW7-3" target="XZPd20D5QZR4fNdpiBW7-5">
          <mxGeometry width="50" height="50" relative="1" as="geometry">
            <mxPoint x="660" y="600" as="sourcePoint" />
            <mxPoint x="710" y="550" as="targetPoint" />
          </mxGeometry>
        </mxCell>
        <mxCell id="XZPd20D5QZR4fNdpiBW7-8" value="" style="endArrow=classic;html=1;rounded=0;exitX=0.018;exitY=0.969;exitDx=0;exitDy=0;exitPerimeter=0;entryX=0.287;entryY=0.74;entryDx=0;entryDy=0;entryPerimeter=0;" edge="1" parent="WIyWlLk6GJQsqaUBKTNV-1" source="XZPd20D5QZR4fNdpiBW7-5" target="XZPd20D5QZR4fNdpiBW7-10">
          <mxGeometry width="50" height="50" relative="1" as="geometry">
            <mxPoint x="810" y="500" as="sourcePoint" />
            <mxPoint x="860" y="450" as="targetPoint" />
          </mxGeometry>
        </mxCell>
        <mxCell id="XZPd20D5QZR4fNdpiBW7-12" value="SI" style="edgeLabel;html=1;align=center;verticalAlign=middle;resizable=0;points=[];" vertex="1" connectable="0" parent="XZPd20D5QZR4fNdpiBW7-8">
          <mxGeometry x="0.0335" y="1" relative="1" as="geometry">
            <mxPoint as="offset" />
          </mxGeometry>
        </mxCell>
        <mxCell id="XZPd20D5QZR4fNdpiBW7-10" value="Determina Validez" style="rhombus;whiteSpace=wrap;html=1;" vertex="1" parent="WIyWlLk6GJQsqaUBKTNV-1">
          <mxGeometry x="860" y="290" width="80" height="80" as="geometry" />
        </mxCell>
        <mxCell id="XZPd20D5QZR4fNdpiBW7-13" value="Solicita y agrega más info" style="rhombus;whiteSpace=wrap;html=1;" vertex="1" parent="WIyWlLk6GJQsqaUBKTNV-1">
          <mxGeometry x="860" y="585" width="80" height="80" as="geometry" />
        </mxCell>
        <mxCell id="XZPd20D5QZR4fNdpiBW7-14" value="No" style="endArrow=classic;html=1;rounded=0;entryX=0;entryY=0.5;entryDx=0;entryDy=0;exitX=0.01;exitY=-0.003;exitDx=0;exitDy=0;exitPerimeter=0;" edge="1" parent="WIyWlLk6GJQsqaUBKTNV-1" source="XZPd20D5QZR4fNdpiBW7-5" target="XZPd20D5QZR4fNdpiBW7-13">
          <mxGeometry width="50" height="50" relative="1" as="geometry">
            <mxPoint x="740" y="680" as="sourcePoint" />
            <mxPoint x="790" y="630" as="targetPoint" />
          </mxGeometry>
        </mxCell>
        <mxCell id="XZPd20D5QZR4fNdpiBW7-15" value="" style="endArrow=classic;html=1;rounded=0;exitX=1;exitY=0.5;exitDx=0;exitDy=0;" edge="1" parent="WIyWlLk6GJQsqaUBKTNV-1" source="XZPd20D5QZR4fNdpiBW7-13">
          <mxGeometry width="50" height="50" relative="1" as="geometry">
            <mxPoint x="980" y="660" as="sourcePoint" />
            <mxPoint x="1030" y="625" as="targetPoint" />
          </mxGeometry>
        </mxCell>
        <mxCell id="XZPd20D5QZR4fNdpiBW7-17" value="Info. Adicional" style="rounded=1;whiteSpace=wrap;html=1;fontSize=12;glass=0;strokeWidth=1;shadow=0;" vertex="1" parent="WIyWlLk6GJQsqaUBKTNV-1">
          <mxGeometry x="1030" y="605" width="120" height="40" as="geometry" />
        </mxCell>
        <mxCell id="XZPd20D5QZR4fNdpiBW7-18" value="" style="endArrow=classic;html=1;rounded=0;exitX=0.5;exitY=0;exitDx=0;exitDy=0;entryX=0.5;entryY=1;entryDx=0;entryDy=0;" edge="1" parent="WIyWlLk6GJQsqaUBKTNV-1" source="XZPd20D5QZR4fNdpiBW7-13" target="XZPd20D5QZR4fNdpiBW7-10">
          <mxGeometry width="50" height="50" relative="1" as="geometry">
            <mxPoint x="860" y="580" as="sourcePoint" />
            <mxPoint x="910" y="530" as="targetPoint" />
          </mxGeometry>
        </mxCell>
        <mxCell id="XZPd20D5QZR4fNdpiBW7-19" value="" style="triangle;whiteSpace=wrap;html=1;rotation=90;" vertex="1" parent="WIyWlLk6GJQsqaUBKTNV-1">
          <mxGeometry x="870" y="170" width="60" height="80" as="geometry" />
        </mxCell>
        <mxCell id="XZPd20D5QZR4fNdpiBW7-20" value="" style="endArrow=classic;html=1;rounded=0;entryX=1;entryY=0.5;entryDx=0;entryDy=0;exitX=0.5;exitY=0;exitDx=0;exitDy=0;" edge="1" parent="WIyWlLk6GJQsqaUBKTNV-1" source="XZPd20D5QZR4fNdpiBW7-10" target="XZPd20D5QZR4fNdpiBW7-19">
          <mxGeometry width="50" height="50" relative="1" as="geometry">
            <mxPoint x="890" y="350" as="sourcePoint" />
            <mxPoint x="940" y="300" as="targetPoint" />
          </mxGeometry>
        </mxCell>
        <mxCell id="XZPd20D5QZR4fNdpiBW7-21" value="¿Es válido?" style="text;html=1;align=center;verticalAlign=middle;resizable=0;points=[];autosize=1;strokeColor=none;fillColor=none;" vertex="1" parent="WIyWlLk6GJQsqaUBKTNV-1">
          <mxGeometry x="855" y="150" width="90" height="30" as="geometry" />
        </mxCell>
        <mxCell id="XZPd20D5QZR4fNdpiBW7-22" value="No" style="endArrow=classic;html=1;rounded=0;exitX=0.058;exitY=1.021;exitDx=0;exitDy=0;exitPerimeter=0;entryX=1;entryY=0.5;entryDx=0;entryDy=0;" edge="1" parent="WIyWlLk6GJQsqaUBKTNV-1" source="XZPd20D5QZR4fNdpiBW7-21" target="XZPd20D5QZR4fNdpiBW7-23">
          <mxGeometry width="50" height="50" relative="1" as="geometry">
            <mxPoint x="910" y="230" as="sourcePoint" />
            <mxPoint x="800" y="120" as="targetPoint" />
          </mxGeometry>
        </mxCell>
        <mxCell id="XZPd20D5QZR4fNdpiBW7-28" style="edgeStyle=orthogonalEdgeStyle;rounded=0;orthogonalLoop=1;jettySize=auto;html=1;entryX=1;entryY=0.5;entryDx=0;entryDy=0;" edge="1" parent="WIyWlLk6GJQsqaUBKTNV-1" source="XZPd20D5QZR4fNdpiBW7-23" target="XZPd20D5QZR4fNdpiBW7-25">
          <mxGeometry relative="1" as="geometry" />
        </mxCell>
        <mxCell id="XZPd20D5QZR4fNdpiBW7-23" value="Informa al cliente y termina la atención" style="rhombus;whiteSpace=wrap;html=1;" vertex="1" parent="WIyWlLk6GJQsqaUBKTNV-1">
          <mxGeometry x="590" y="-10" width="130" height="110" as="geometry" />
        </mxCell>
        <mxCell id="XZPd20D5QZR4fNdpiBW7-25" value="" style="triangle;whiteSpace=wrap;html=1;rotation=-90;" vertex="1" parent="WIyWlLk6GJQsqaUBKTNV-1">
          <mxGeometry x="625" y="150" width="60" height="80" as="geometry" />
        </mxCell>
        <mxCell id="XZPd20D5QZR4fNdpiBW7-29" value="¿Actualizó el estado?" style="text;html=1;align=center;verticalAlign=middle;resizable=0;points=[];autosize=1;strokeColor=none;fillColor=none;" vertex="1" parent="WIyWlLk6GJQsqaUBKTNV-1">
          <mxGeometry x="660" y="150" width="140" height="30" as="geometry" />
        </mxCell>
        <mxCell id="XZPd20D5QZR4fNdpiBW7-31" value="&lt;font style=&quot;font-size: 12px;&quot;&gt;Estado: pendiente&lt;/font&gt;" style="ellipse;whiteSpace=wrap;html=1;" vertex="1" parent="WIyWlLk6GJQsqaUBKTNV-1">
          <mxGeometry x="371" y="100" width="99" height="30" as="geometry" />
        </mxCell>
        <mxCell id="XZPd20D5QZR4fNdpiBW7-32" value="" style="endArrow=none;html=1;rounded=0;entryX=0.5;entryY=1;entryDx=0;entryDy=0;exitX=0.5;exitY=0;exitDx=0;exitDy=0;" edge="1" parent="WIyWlLk6GJQsqaUBKTNV-1" source="WIyWlLk6GJQsqaUBKTNV-7" target="XZPd20D5QZR4fNdpiBW7-31">
          <mxGeometry width="50" height="50" relative="1" as="geometry">
            <mxPoint x="330" y="170" as="sourcePoint" />
            <mxPoint x="380" y="120" as="targetPoint" />
          </mxGeometry>
        </mxCell>
        <mxCell id="XZPd20D5QZR4fNdpiBW7-33" value="SI" style="endArrow=classic;html=1;rounded=0;exitX=-0.057;exitY=-0.005;exitDx=0;exitDy=0;exitPerimeter=0;" edge="1" parent="WIyWlLk6GJQsqaUBKTNV-1" source="XZPd20D5QZR4fNdpiBW7-25" target="XZPd20D5QZR4fNdpiBW7-34">
          <mxGeometry width="50" height="50" relative="1" as="geometry">
            <mxPoint x="610" y="280" as="sourcePoint" />
            <mxPoint x="660" y="230" as="targetPoint" />
          </mxGeometry>
        </mxCell>
        <mxCell id="XZPd20D5QZR4fNdpiBW7-34" value="Estado: inválido" style="ellipse;whiteSpace=wrap;html=1;" vertex="1" parent="WIyWlLk6GJQsqaUBKTNV-1">
          <mxGeometry x="480" y="260" width="90" height="30" as="geometry" />
        </mxCell>
        <mxCell id="XZPd20D5QZR4fNdpiBW7-36" value="" style="endArrow=none;dashed=1;html=1;dashPattern=1 3;strokeWidth=2;rounded=0;exitX=0.002;exitY=0.338;exitDx=0;exitDy=0;exitPerimeter=0;" edge="1" parent="WIyWlLk6GJQsqaUBKTNV-1" source="XZPd20D5QZR4fNdpiBW7-34" target="WIyWlLk6GJQsqaUBKTNV-7">
          <mxGeometry width="50" height="50" relative="1" as="geometry">
            <mxPoint x="470" y="310" as="sourcePoint" />
            <mxPoint x="520" y="260" as="targetPoint" />
          </mxGeometry>
        </mxCell>
        <mxCell id="XZPd20D5QZR4fNdpiBW7-37" value="No" style="endArrow=classic;html=1;rounded=0;entryX=0;entryY=0.5;entryDx=0;entryDy=0;exitX=0.035;exitY=0.974;exitDx=0;exitDy=0;exitPerimeter=0;" edge="1" parent="WIyWlLk6GJQsqaUBKTNV-1" source="XZPd20D5QZR4fNdpiBW7-25" target="XZPd20D5QZR4fNdpiBW7-39">
          <mxGeometry width="50" height="50" relative="1" as="geometry">
            <mxPoint x="720" y="330" as="sourcePoint" />
            <mxPoint x="770" y="280" as="targetPoint" />
          </mxGeometry>
        </mxCell>
        <mxCell id="XZPd20D5QZR4fNdpiBW7-38" value="Alerta" style="rounded=1;whiteSpace=wrap;html=1;fontSize=12;glass=0;strokeWidth=1;shadow=0;" vertex="1" parent="WIyWlLk6GJQsqaUBKTNV-1">
          <mxGeometry x="640" y="400" width="100" height="30" as="geometry" />
        </mxCell>
        <mxCell id="XZPd20D5QZR4fNdpiBW7-39" value="Después de X tiempo se genera" style="rhombus;whiteSpace=wrap;html=1;" vertex="1" parent="WIyWlLk6GJQsqaUBKTNV-1">
          <mxGeometry x="760" y="210" width="80" height="80" as="geometry" />
        </mxCell>
        <mxCell id="XZPd20D5QZR4fNdpiBW7-42" value="" style="endArrow=classic;html=1;rounded=0;entryX=0.5;entryY=0;entryDx=0;entryDy=0;exitX=0.5;exitY=1;exitDx=0;exitDy=0;" edge="1" parent="WIyWlLk6GJQsqaUBKTNV-1" source="XZPd20D5QZR4fNdpiBW7-39" target="XZPd20D5QZR4fNdpiBW7-38">
          <mxGeometry width="50" height="50" relative="1" as="geometry">
            <mxPoint x="630" y="380" as="sourcePoint" />
            <mxPoint x="680" y="330" as="targetPoint" />
          </mxGeometry>
        </mxCell>
        <mxCell id="XZPd20D5QZR4fNdpiBW7-43" value="Si" style="endArrow=classic;html=1;rounded=0;exitX=0.029;exitY=0.023;exitDx=0;exitDy=0;exitPerimeter=0;entryX=0;entryY=0.5;entryDx=0;entryDy=0;" edge="1" parent="WIyWlLk6GJQsqaUBKTNV-1" source="XZPd20D5QZR4fNdpiBW7-19" target="XZPd20D5QZR4fNdpiBW7-46">
          <mxGeometry width="50" height="50" relative="1" as="geometry">
            <mxPoint x="1050" y="160" as="sourcePoint" />
            <mxPoint x="1070" y="50" as="targetPoint" />
          </mxGeometry>
        </mxCell>
        <mxCell id="XZPd20D5QZR4fNdpiBW7-44" value="" style="endArrow=none;html=1;rounded=0;exitX=0.477;exitY=-0.025;exitDx=0;exitDy=0;exitPerimeter=0;" edge="1" parent="WIyWlLk6GJQsqaUBKTNV-1" source="XZPd20D5QZR4fNdpiBW7-6" target="XZPd20D5QZR4fNdpiBW7-5">
          <mxGeometry width="50" height="50" relative="1" as="geometry">
            <mxPoint x="650" y="620" as="sourcePoint" />
            <mxPoint x="700" y="570" as="targetPoint" />
          </mxGeometry>
        </mxCell>
        <mxCell id="XZPd20D5QZR4fNdpiBW7-45" value="" style="endArrow=none;html=1;rounded=0;entryX=0.486;entryY=0.988;entryDx=0;entryDy=0;entryPerimeter=0;exitX=0.5;exitY=1;exitDx=0;exitDy=0;" edge="1" parent="WIyWlLk6GJQsqaUBKTNV-1" source="XZPd20D5QZR4fNdpiBW7-25" target="XZPd20D5QZR4fNdpiBW7-29">
          <mxGeometry width="50" height="50" relative="1" as="geometry">
            <mxPoint x="620" y="330" as="sourcePoint" />
            <mxPoint x="670" y="280" as="targetPoint" />
          </mxGeometry>
        </mxCell>
        <mxCell id="XZPd20D5QZR4fNdpiBW7-46" value="Admin toma decisión" style="rhombus;whiteSpace=wrap;html=1;" vertex="1" parent="WIyWlLk6GJQsqaUBKTNV-1">
          <mxGeometry x="1070" y="10" width="80" height="80" as="geometry" />
        </mxCell>
        <mxCell id="XZPd20D5QZR4fNdpiBW7-49" value="" style="triangle;whiteSpace=wrap;html=1;rotation=-180;" vertex="1" parent="WIyWlLk6GJQsqaUBKTNV-1">
          <mxGeometry x="1280" y="10" width="60" height="80" as="geometry" />
        </mxCell>
        <mxCell id="XZPd20D5QZR4fNdpiBW7-50" value="¿Amerita devolución directa de dinero?" style="text;html=1;align=center;verticalAlign=middle;resizable=0;points=[];autosize=1;strokeColor=none;fillColor=none;" vertex="1" parent="WIyWlLk6GJQsqaUBKTNV-1">
          <mxGeometry x="1090" y="-60" width="230" height="30" as="geometry" />
        </mxCell>
        <mxCell id="XZPd20D5QZR4fNdpiBW7-51" value="" style="endArrow=classic;html=1;rounded=0;entryX=0.909;entryY=0.506;entryDx=0;entryDy=0;exitX=1;exitY=0.5;exitDx=0;exitDy=0;entryPerimeter=0;" edge="1" parent="WIyWlLk6GJQsqaUBKTNV-1" source="XZPd20D5QZR4fNdpiBW7-46" target="XZPd20D5QZR4fNdpiBW7-49">
          <mxGeometry width="50" height="50" relative="1" as="geometry">
            <mxPoint x="1210" y="170" as="sourcePoint" />
            <mxPoint x="1260" y="120" as="targetPoint" />
          </mxGeometry>
        </mxCell>
        <mxCell id="XZPd20D5QZR4fNdpiBW7-52" value="" style="endArrow=none;html=1;rounded=0;entryX=0.5;entryY=1;entryDx=0;entryDy=0;exitX=0.492;exitY=0.972;exitDx=0;exitDy=0;exitPerimeter=0;" edge="1" parent="WIyWlLk6GJQsqaUBKTNV-1" source="XZPd20D5QZR4fNdpiBW7-50" target="XZPd20D5QZR4fNdpiBW7-49">
          <mxGeometry width="50" height="50" relative="1" as="geometry">
            <mxPoint x="1230" y="80" as="sourcePoint" />
            <mxPoint x="1280" y="30" as="targetPoint" />
          </mxGeometry>
        </mxCell>
        <mxCell id="XZPd20D5QZR4fNdpiBW7-54" value="Si" style="endArrow=classic;html=1;rounded=0;entryX=0;entryY=0.5;entryDx=0;entryDy=0;exitX=-0.024;exitY=1;exitDx=0;exitDy=0;exitPerimeter=0;" edge="1" parent="WIyWlLk6GJQsqaUBKTNV-1" source="XZPd20D5QZR4fNdpiBW7-49" target="XZPd20D5QZR4fNdpiBW7-55">
          <mxGeometry width="50" height="50" relative="1" as="geometry">
            <mxPoint x="1340" y="10" as="sourcePoint" />
            <mxPoint x="1500" y="-65" as="targetPoint" />
          </mxGeometry>
        </mxCell>
        <mxCell id="XZPd20D5QZR4fNdpiBW7-55" value="Solicita devolución&amp;nbsp;" style="rhombus;whiteSpace=wrap;html=1;" vertex="1" parent="WIyWlLk6GJQsqaUBKTNV-1">
          <mxGeometry x="1460" y="-140" width="80" height="80" as="geometry" />
        </mxCell>
        <mxCell id="XZPd20D5QZR4fNdpiBW7-56" value="No" style="endArrow=classic;html=1;rounded=0;entryX=1;entryY=0.5;entryDx=0;entryDy=0;exitX=-0.015;exitY=0.992;exitDx=0;exitDy=0;exitPerimeter=0;" edge="1" parent="WIyWlLk6GJQsqaUBKTNV-1" source="XZPd20D5QZR4fNdpiBW7-78" target="XZPd20D5QZR4fNdpiBW7-57">
          <mxGeometry width="50" height="50" relative="1" as="geometry">
            <mxPoint x="1749.9999999999998" y="-239.03999999999996" as="sourcePoint" />
            <mxPoint x="1780.84" y="-500" as="targetPoint" />
          </mxGeometry>
        </mxCell>
        <mxCell id="XZPd20D5QZR4fNdpiBW7-57" value="" style="triangle;whiteSpace=wrap;html=1;rotation=-180;" vertex="1" parent="WIyWlLk6GJQsqaUBKTNV-1">
          <mxGeometry x="1810.84" y="-330" width="60" height="80" as="geometry" />
        </mxCell>
        <mxCell id="XZPd20D5QZR4fNdpiBW7-58" value="¿Actualizó el estado?" style="text;html=1;align=center;verticalAlign=middle;resizable=0;points=[];autosize=1;strokeColor=none;fillColor=none;" vertex="1" parent="WIyWlLk6GJQsqaUBKTNV-1">
          <mxGeometry x="1710" y="-440" width="140" height="30" as="geometry" />
        </mxCell>
        <mxCell id="XZPd20D5QZR4fNdpiBW7-59" value="" style="endArrow=classic;html=1;rounded=0;exitX=-0.006;exitY=1.003;exitDx=0;exitDy=0;exitPerimeter=0;" edge="1" parent="WIyWlLk6GJQsqaUBKTNV-1" source="XZPd20D5QZR4fNdpiBW7-57">
          <mxGeometry width="50" height="50" relative="1" as="geometry">
            <mxPoint x="1950.84" y="-200" as="sourcePoint" />
            <mxPoint x="2040.84" y="-400" as="targetPoint" />
          </mxGeometry>
        </mxCell>
        <mxCell id="XZPd20D5QZR4fNdpiBW7-60" value="No" style="edgeLabel;html=1;align=center;verticalAlign=middle;resizable=0;points=[];" vertex="1" connectable="0" parent="XZPd20D5QZR4fNdpiBW7-59">
          <mxGeometry x="-0.0579" y="2" relative="1" as="geometry">
            <mxPoint as="offset" />
          </mxGeometry>
        </mxCell>
        <mxCell id="XZPd20D5QZR4fNdpiBW7-61" value="Después de X tiempo se genera" style="rhombus;whiteSpace=wrap;html=1;" vertex="1" parent="WIyWlLk6GJQsqaUBKTNV-1">
          <mxGeometry x="2040.84" y="-440" width="80" height="80" as="geometry" />
        </mxCell>
        <mxCell id="XZPd20D5QZR4fNdpiBW7-62" value="" style="endArrow=classic;html=1;rounded=0;exitX=1;exitY=0.5;exitDx=0;exitDy=0;" edge="1" parent="WIyWlLk6GJQsqaUBKTNV-1" source="XZPd20D5QZR4fNdpiBW7-61">
          <mxGeometry width="50" height="50" relative="1" as="geometry">
            <mxPoint x="2310.84" y="-300" as="sourcePoint" />
            <mxPoint x="2250.84" y="-400" as="targetPoint" />
          </mxGeometry>
        </mxCell>
        <mxCell id="XZPd20D5QZR4fNdpiBW7-65" value="Alerta" style="rounded=1;whiteSpace=wrap;html=1;fontSize=12;glass=0;strokeWidth=1;shadow=0;" vertex="1" parent="WIyWlLk6GJQsqaUBKTNV-1">
          <mxGeometry x="2250.84" y="-415" width="100" height="30" as="geometry" />
        </mxCell>
        <mxCell id="XZPd20D5QZR4fNdpiBW7-66" value="No" style="endArrow=classic;html=1;rounded=0;exitX=-0.013;exitY=0.028;exitDx=0;exitDy=0;exitPerimeter=0;entryX=1;entryY=0.5;entryDx=0;entryDy=0;" edge="1" parent="WIyWlLk6GJQsqaUBKTNV-1" source="XZPd20D5QZR4fNdpiBW7-49" target="XZPd20D5QZR4fNdpiBW7-68">
          <mxGeometry width="50" height="50" relative="1" as="geometry">
            <mxPoint x="1440" y="200" as="sourcePoint" />
            <mxPoint x="1500" y="120" as="targetPoint" />
          </mxGeometry>
        </mxCell>
        <mxCell id="XZPd20D5QZR4fNdpiBW7-68" value="" style="triangle;whiteSpace=wrap;html=1;rotation=-180;" vertex="1" parent="WIyWlLk6GJQsqaUBKTNV-1">
          <mxGeometry x="1630" y="80" width="60" height="80" as="geometry" />
        </mxCell>
        <mxCell id="XZPd20D5QZR4fNdpiBW7-70" value="¿Necesita de servicio técnico?" style="text;html=1;align=center;verticalAlign=middle;resizable=0;points=[];autosize=1;strokeColor=none;fillColor=none;" vertex="1" parent="WIyWlLk6GJQsqaUBKTNV-1">
          <mxGeometry x="1450" y="170" width="190" height="30" as="geometry" />
        </mxCell>
        <mxCell id="XZPd20D5QZR4fNdpiBW7-71" value="" style="endArrow=none;html=1;rounded=0;entryX=0.5;entryY=0;entryDx=0;entryDy=0;exitX=0.491;exitY=0.013;exitDx=0;exitDy=0;exitPerimeter=0;" edge="1" parent="WIyWlLk6GJQsqaUBKTNV-1" source="XZPd20D5QZR4fNdpiBW7-70" target="XZPd20D5QZR4fNdpiBW7-68">
          <mxGeometry width="50" height="50" relative="1" as="geometry">
            <mxPoint x="1580" y="250" as="sourcePoint" />
            <mxPoint x="1630" y="200" as="targetPoint" />
          </mxGeometry>
        </mxCell>
        <mxCell id="XZPd20D5QZR4fNdpiBW7-73" value="" style="endArrow=none;html=1;rounded=0;entryX=0.484;entryY=0.948;entryDx=0;entryDy=0;entryPerimeter=0;exitX=0.575;exitY=0.682;exitDx=0;exitDy=0;exitPerimeter=0;" edge="1" parent="WIyWlLk6GJQsqaUBKTNV-1" source="XZPd20D5QZR4fNdpiBW7-57" target="XZPd20D5QZR4fNdpiBW7-58">
          <mxGeometry width="50" height="50" relative="1" as="geometry">
            <mxPoint x="1690.84" y="-250" as="sourcePoint" />
            <mxPoint x="1797.4799999999998" y="-368.43000000000006" as="targetPoint" />
          </mxGeometry>
        </mxCell>
        <mxCell id="XZPd20D5QZR4fNdpiBW7-74" value="Si" style="endArrow=classic;html=1;rounded=0;exitX=0.004;exitY=0.971;exitDx=0;exitDy=0;exitPerimeter=0;entryX=0;entryY=1;entryDx=0;entryDy=0;" edge="1" parent="WIyWlLk6GJQsqaUBKTNV-1" source="XZPd20D5QZR4fNdpiBW7-68" target="XZPd20D5QZR4fNdpiBW7-75">
          <mxGeometry width="50" height="50" relative="1" as="geometry">
            <mxPoint x="1620" y="230" as="sourcePoint" />
            <mxPoint x="1690" y="40" as="targetPoint" />
          </mxGeometry>
        </mxCell>
        <mxCell id="XZPd20D5QZR4fNdpiBW7-85" style="edgeStyle=orthogonalEdgeStyle;rounded=0;orthogonalLoop=1;jettySize=auto;html=1;" edge="1" parent="WIyWlLk6GJQsqaUBKTNV-1" source="XZPd20D5QZR4fNdpiBW7-75" target="XZPd20D5QZR4fNdpiBW7-84">
          <mxGeometry relative="1" as="geometry" />
        </mxCell>
        <mxCell id="XZPd20D5QZR4fNdpiBW7-75" value="Contacta" style="rhombus;whiteSpace=wrap;html=1;" vertex="1" parent="WIyWlLk6GJQsqaUBKTNV-1">
          <mxGeometry x="1800" y="-30" width="80" height="80" as="geometry" />
        </mxCell>
        <mxCell id="XZPd20D5QZR4fNdpiBW7-78" value="" style="triangle;whiteSpace=wrap;html=1;rotation=-180;" vertex="1" parent="WIyWlLk6GJQsqaUBKTNV-1">
          <mxGeometry x="1620" y="-150" width="60" height="80" as="geometry" />
        </mxCell>
        <mxCell id="XZPd20D5QZR4fNdpiBW7-79" value="" style="endArrow=none;html=1;rounded=0;entryX=0.5;entryY=0;entryDx=0;entryDy=0;exitX=0.516;exitY=-0.086;exitDx=0;exitDy=0;exitPerimeter=0;" edge="1" parent="WIyWlLk6GJQsqaUBKTNV-1" target="XZPd20D5QZR4fNdpiBW7-78" source="XZPd20D5QZR4fNdpiBW7-80">
          <mxGeometry width="50" height="50" relative="1" as="geometry">
            <mxPoint x="1670" y="-20" as="sourcePoint" />
            <mxPoint x="1707" as="targetPoint" />
          </mxGeometry>
        </mxCell>
        <mxCell id="XZPd20D5QZR4fNdpiBW7-80" value="¿Necesita de servicio técnico?" style="text;html=1;align=center;verticalAlign=middle;resizable=0;points=[];autosize=1;strokeColor=none;fillColor=none;" vertex="1" parent="WIyWlLk6GJQsqaUBKTNV-1">
          <mxGeometry x="1464" y="-20" width="190" height="30" as="geometry" />
        </mxCell>
        <mxCell id="XZPd20D5QZR4fNdpiBW7-81" value="" style="endArrow=classic;html=1;rounded=0;exitX=1;exitY=0.5;exitDx=0;exitDy=0;entryX=1;entryY=0.5;entryDx=0;entryDy=0;" edge="1" parent="WIyWlLk6GJQsqaUBKTNV-1" source="XZPd20D5QZR4fNdpiBW7-55" target="XZPd20D5QZR4fNdpiBW7-78">
          <mxGeometry width="50" height="50" relative="1" as="geometry">
            <mxPoint x="1780" y="20" as="sourcePoint" />
            <mxPoint x="1830" y="-30" as="targetPoint" />
          </mxGeometry>
        </mxCell>
        <mxCell id="XZPd20D5QZR4fNdpiBW7-82" value="SI" style="endArrow=classic;html=1;rounded=0;exitX=-0.02;exitY=-0.012;exitDx=0;exitDy=0;exitPerimeter=0;entryX=0;entryY=0;entryDx=0;entryDy=0;" edge="1" parent="WIyWlLk6GJQsqaUBKTNV-1" source="XZPd20D5QZR4fNdpiBW7-78" target="XZPd20D5QZR4fNdpiBW7-75">
          <mxGeometry width="50" height="50" relative="1" as="geometry">
            <mxPoint x="1840" y="40" as="sourcePoint" />
            <mxPoint x="1890" y="-10" as="targetPoint" />
          </mxGeometry>
        </mxCell>
        <mxCell id="XZPd20D5QZR4fNdpiBW7-84" value="Servicio Técnico" style="rounded=1;whiteSpace=wrap;html=1;fontSize=12;glass=0;strokeWidth=1;shadow=0;" vertex="1" parent="WIyWlLk6GJQsqaUBKTNV-1">
          <mxGeometry x="2008" y="-10" width="120" height="40" as="geometry" />
        </mxCell>
        <mxCell id="XZPd20D5QZR4fNdpiBW7-86" value="Si" style="endArrow=classic;html=1;rounded=0;" edge="1" parent="WIyWlLk6GJQsqaUBKTNV-1">
          <mxGeometry width="50" height="50" relative="1" as="geometry">
            <mxPoint x="1871.84" y="-250" as="sourcePoint" />
            <mxPoint x="2010.84" y="-240" as="targetPoint" />
          </mxGeometry>
        </mxCell>
        <mxCell id="XZPd20D5QZR4fNdpiBW7-87" value="Estado: completado/devolucion" style="ellipse;whiteSpace=wrap;html=1;" vertex="1" parent="WIyWlLk6GJQsqaUBKTNV-1">
          <mxGeometry x="2010.84" y="-260" width="160" height="40" as="geometry" />
        </mxCell>
        <mxCell id="XZPd20D5QZR4fNdpiBW7-88" value="" style="triangle;whiteSpace=wrap;html=1;rotation=-181;" vertex="1" parent="WIyWlLk6GJQsqaUBKTNV-1">
          <mxGeometry x="369" y="545" width="60" height="80" as="geometry" />
        </mxCell>
        <mxCell id="XZPd20D5QZR4fNdpiBW7-89" value="¿Lo atiende?" style="text;html=1;align=center;verticalAlign=middle;resizable=0;points=[];autosize=1;strokeColor=none;fillColor=none;" vertex="1" parent="WIyWlLk6GJQsqaUBKTNV-1">
          <mxGeometry x="339" y="500" width="90" height="30" as="geometry" />
        </mxCell>
        <mxCell id="XZPd20D5QZR4fNdpiBW7-90" value="" style="endArrow=none;html=1;rounded=0;entryX=0.456;entryY=1;entryDx=0;entryDy=0;entryPerimeter=0;exitX=0.5;exitY=1;exitDx=0;exitDy=0;" edge="1" parent="WIyWlLk6GJQsqaUBKTNV-1" source="XZPd20D5QZR4fNdpiBW7-88" target="XZPd20D5QZR4fNdpiBW7-89">
          <mxGeometry width="50" height="50" relative="1" as="geometry">
            <mxPoint x="240" y="600" as="sourcePoint" />
            <mxPoint x="290" y="550" as="targetPoint" />
          </mxGeometry>
        </mxCell>
        <mxCell id="XZPd20D5QZR4fNdpiBW7-91" value="Si" style="endArrow=classic;html=1;rounded=0;entryX=0;entryY=0.5;entryDx=0;entryDy=0;exitX=0.006;exitY=1.022;exitDx=0;exitDy=0;exitPerimeter=0;" edge="1" parent="WIyWlLk6GJQsqaUBKTNV-1" source="XZPd20D5QZR4fNdpiBW7-88" target="XZPd20D5QZR4fNdpiBW7-3">
          <mxGeometry width="50" height="50" relative="1" as="geometry">
            <mxPoint x="410" y="610" as="sourcePoint" />
            <mxPoint x="460" y="560" as="targetPoint" />
          </mxGeometry>
        </mxCell>
        <mxCell id="XZPd20D5QZR4fNdpiBW7-92" value="No" style="endArrow=classic;html=1;rounded=0;exitX=0.038;exitY=0.019;exitDx=0;exitDy=0;exitPerimeter=0;entryX=0;entryY=0.5;entryDx=0;entryDy=0;" edge="1" parent="WIyWlLk6GJQsqaUBKTNV-1" source="XZPd20D5QZR4fNdpiBW7-88" target="XZPd20D5QZR4fNdpiBW7-94">
          <mxGeometry width="50" height="50" relative="1" as="geometry">
            <mxPoint x="430" y="720" as="sourcePoint" />
            <mxPoint x="510" y="700" as="targetPoint" />
          </mxGeometry>
        </mxCell>
        <mxCell id="XZPd20D5QZR4fNdpiBW7-94" value="Después de X tiempo se genera" style="rhombus;whiteSpace=wrap;html=1;" vertex="1" parent="WIyWlLk6GJQsqaUBKTNV-1">
          <mxGeometry x="530" y="680" width="80" height="80" as="geometry" />
        </mxCell>
        <mxCell id="XZPd20D5QZR4fNdpiBW7-95" value="Alerta" style="rounded=1;whiteSpace=wrap;html=1;fontSize=12;glass=0;strokeWidth=1;shadow=0;" vertex="1" parent="WIyWlLk6GJQsqaUBKTNV-1">
          <mxGeometry x="720" y="705" width="100" height="30" as="geometry" />
        </mxCell>
        <mxCell id="XZPd20D5QZR4fNdpiBW7-96" value="" style="endArrow=classic;html=1;rounded=0;exitX=1;exitY=0.5;exitDx=0;exitDy=0;entryX=0;entryY=0.5;entryDx=0;entryDy=0;" edge="1" parent="WIyWlLk6GJQsqaUBKTNV-1" source="XZPd20D5QZR4fNdpiBW7-94" target="XZPd20D5QZR4fNdpiBW7-95">
          <mxGeometry width="50" height="50" relative="1" as="geometry">
            <mxPoint x="700" y="590" as="sourcePoint" />
            <mxPoint x="750" y="540" as="targetPoint" />
          </mxGeometry>
        </mxCell>
        <mxCell id="XZPd20D5QZR4fNdpiBW7-97" value="" style="endArrow=classic;html=1;rounded=0;entryX=0;entryY=0.5;entryDx=0;entryDy=0;exitX=1;exitY=0.5;exitDx=0;exitDy=0;" edge="1" parent="WIyWlLk6GJQsqaUBKTNV-1" source="XZPd20D5QZR4fNdpiBW7-84" target="XZPd20D5QZR4fNdpiBW7-98">
          <mxGeometry width="50" height="50" relative="1" as="geometry">
            <mxPoint x="1990" y="160" as="sourcePoint" />
            <mxPoint x="2040" y="110" as="targetPoint" />
          </mxGeometry>
        </mxCell>
        <mxCell id="XZPd20D5QZR4fNdpiBW7-98" value="Servicio técnico soluciona el problema" style="rhombus;whiteSpace=wrap;html=1;" vertex="1" parent="WIyWlLk6GJQsqaUBKTNV-1">
          <mxGeometry x="2240.84" y="-40" width="120" height="100" as="geometry" />
        </mxCell>
        <mxCell id="XZPd20D5QZR4fNdpiBW7-99" value="Informa a admin" style="rhombus;whiteSpace=wrap;html=1;" vertex="1" parent="WIyWlLk6GJQsqaUBKTNV-1">
          <mxGeometry x="1980.0000000000002" y="-150" width="80" height="80" as="geometry" />
        </mxCell>
        <mxCell id="XZPd20D5QZR4fNdpiBW7-100" value="" style="endArrow=classic;html=1;rounded=0;entryX=1;entryY=0.5;entryDx=0;entryDy=0;exitX=0.5;exitY=0;exitDx=0;exitDy=0;" edge="1" parent="WIyWlLk6GJQsqaUBKTNV-1" source="XZPd20D5QZR4fNdpiBW7-98" target="XZPd20D5QZR4fNdpiBW7-99">
          <mxGeometry width="50" height="50" relative="1" as="geometry">
            <mxPoint x="2070" y="-30" as="sourcePoint" />
            <mxPoint x="2120" y="-80" as="targetPoint" />
          </mxGeometry>
        </mxCell>
        <mxCell id="XZPd20D5QZR4fNdpiBW7-101" value="" style="endArrow=classic;html=1;rounded=0;entryX=0.5;entryY=0;entryDx=0;entryDy=0;exitX=0;exitY=0.5;exitDx=0;exitDy=0;" edge="1" parent="WIyWlLk6GJQsqaUBKTNV-1" source="XZPd20D5QZR4fNdpiBW7-99" target="XZPd20D5QZR4fNdpiBW7-57">
          <mxGeometry width="50" height="50" relative="1" as="geometry">
            <mxPoint x="1870" y="-150" as="sourcePoint" />
            <mxPoint x="1920" y="-200" as="targetPoint" />
          </mxGeometry>
        </mxCell>
        <mxCell id="XZPd20D5QZR4fNdpiBW7-102" value="Portal lavex" style="text;html=1;align=center;verticalAlign=middle;resizable=0;points=[];autosize=1;strokeColor=none;fillColor=none;" vertex="1" parent="WIyWlLk6GJQsqaUBKTNV-1">
          <mxGeometry x="185" y="48" width="90" height="30" as="geometry" />
        </mxCell>
      </root>
    </mxGraphModel>
  </diagram>
</mxfile>
